<svg xmlns="http://www.w3.org/2000/svg" xmlns:xlink="http://www.w3.org/1999/xlink" version="1.1" x="0px" y="0px" viewBox="0 0 100 100" enable-background="new 0 0 100 100" xml:space="preserve"><g><path stroke='#1e2019' stroke-width='1px' d="M68.384,83.726H30.337c-7.444,0-13.5-6.056-13.5-13.5V29.774c0-7.444,6.056-13.5,13.5-13.5h38.047   c7.444,0,13.5,6.056,13.5,13.5v40.451C81.884,77.669,75.828,83.726,68.384,83.726z M30.337,19.274c-5.79,0-10.5,4.71-10.5,10.5   v40.451c0,5.79,4.71,10.5,10.5,10.5h38.047c5.79,0,10.5-4.71,10.5-10.5V29.774c0-5.79-4.71-10.5-10.5-10.5H30.337z"/></g></svg>